<mxfile host="app.diagrams.net" modified="2022-04-26T07:52:01.518Z" agent="5.0 (Windows NT 10.0; Win64; x64) AppleWebKit/537.36 (KHTML, like Gecko) Chrome/100.0.4896.127 Safari/537.36 Edg/100.0.1185.50" etag="1prb9H543RdNLdT0VNNO" version="17.4.6" type="github">
  <diagram id="K1GfSEUhn4eM5_gA0J9W" name="Page-1">
    <mxGraphModel dx="1038" dy="579" grid="1" gridSize="10" guides="1" tooltips="1" connect="1" arrows="1" fold="1" page="1" pageScale="1" pageWidth="850" pageHeight="1100" math="0" shadow="0">
      <root>
        <mxCell id="0" />
        <mxCell id="1" parent="0" />
        <mxCell id="G4P-UI6NSGhW86nzO2lC-4" value="" style="edgeStyle=orthogonalEdgeStyle;rounded=0;orthogonalLoop=1;jettySize=auto;html=1;" edge="1" parent="1" source="G4P-UI6NSGhW86nzO2lC-2" target="G4P-UI6NSGhW86nzO2lC-3">
          <mxGeometry relative="1" as="geometry" />
        </mxCell>
        <mxCell id="G4P-UI6NSGhW86nzO2lC-10" style="edgeStyle=orthogonalEdgeStyle;rounded=0;orthogonalLoop=1;jettySize=auto;html=1;entryX=0.5;entryY=0;entryDx=0;entryDy=0;" edge="1" parent="1" source="G4P-UI6NSGhW86nzO2lC-2" target="G4P-UI6NSGhW86nzO2lC-8">
          <mxGeometry relative="1" as="geometry">
            <Array as="points">
              <mxPoint x="290" y="40" />
            </Array>
          </mxGeometry>
        </mxCell>
        <mxCell id="G4P-UI6NSGhW86nzO2lC-13" value="" style="edgeStyle=orthogonalEdgeStyle;rounded=0;orthogonalLoop=1;jettySize=auto;html=1;" edge="1" parent="1" source="G4P-UI6NSGhW86nzO2lC-2" target="G4P-UI6NSGhW86nzO2lC-12">
          <mxGeometry relative="1" as="geometry" />
        </mxCell>
        <mxCell id="G4P-UI6NSGhW86nzO2lC-2" value="start" style="rounded=1;whiteSpace=wrap;html=1;" vertex="1" parent="1">
          <mxGeometry x="305" y="10" width="120" height="60" as="geometry" />
        </mxCell>
        <mxCell id="G4P-UI6NSGhW86nzO2lC-6" value="" style="edgeStyle=orthogonalEdgeStyle;rounded=0;orthogonalLoop=1;jettySize=auto;html=1;" edge="1" parent="1" source="G4P-UI6NSGhW86nzO2lC-3" target="G4P-UI6NSGhW86nzO2lC-5">
          <mxGeometry relative="1" as="geometry" />
        </mxCell>
        <mxCell id="G4P-UI6NSGhW86nzO2lC-3" value="IF current rvo agent &amp;gt;= rvo agent limit" style="rhombus;whiteSpace=wrap;html=1;rounded=1;" vertex="1" parent="1">
          <mxGeometry x="60" y="100" width="80" height="80" as="geometry" />
        </mxCell>
        <mxCell id="G4P-UI6NSGhW86nzO2lC-5" value="return" style="whiteSpace=wrap;html=1;rounded=1;" vertex="1" parent="1">
          <mxGeometry x="40" y="230" width="120" height="60" as="geometry" />
        </mxCell>
        <mxCell id="G4P-UI6NSGhW86nzO2lC-11" value="" style="edgeStyle=orthogonalEdgeStyle;rounded=0;orthogonalLoop=1;jettySize=auto;html=1;" edge="1" parent="1" source="G4P-UI6NSGhW86nzO2lC-8" target="G4P-UI6NSGhW86nzO2lC-9">
          <mxGeometry relative="1" as="geometry" />
        </mxCell>
        <mxCell id="G4P-UI6NSGhW86nzO2lC-8" value="IF remain agent count &amp;lt; arrival rate" style="rhombus;whiteSpace=wrap;html=1;rounded=1;" vertex="1" parent="1">
          <mxGeometry x="250" y="100" width="80" height="80" as="geometry" />
        </mxCell>
        <mxCell id="G4P-UI6NSGhW86nzO2lC-9" value="set the arrival rate" style="whiteSpace=wrap;html=1;rounded=1;" vertex="1" parent="1">
          <mxGeometry x="230" y="230" width="120" height="60" as="geometry" />
        </mxCell>
        <mxCell id="G4P-UI6NSGhW86nzO2lC-15" value="" style="edgeStyle=orthogonalEdgeStyle;rounded=0;orthogonalLoop=1;jettySize=auto;html=1;" edge="1" parent="1" source="G4P-UI6NSGhW86nzO2lC-12" target="G4P-UI6NSGhW86nzO2lC-14">
          <mxGeometry relative="1" as="geometry" />
        </mxCell>
        <mxCell id="G4P-UI6NSGhW86nzO2lC-12" value="construct the arrival pop request object" style="whiteSpace=wrap;html=1;rounded=1;" vertex="1" parent="1">
          <mxGeometry x="520" y="10" width="120" height="60" as="geometry" />
        </mxCell>
        <mxCell id="G4P-UI6NSGhW86nzO2lC-17" value="calllback success" style="edgeStyle=orthogonalEdgeStyle;rounded=0;orthogonalLoop=1;jettySize=auto;html=1;" edge="1" parent="1" source="G4P-UI6NSGhW86nzO2lC-14" target="G4P-UI6NSGhW86nzO2lC-16">
          <mxGeometry relative="1" as="geometry" />
        </mxCell>
        <mxCell id="G4P-UI6NSGhW86nzO2lC-14" value="send the request" style="whiteSpace=wrap;html=1;rounded=1;" vertex="1" parent="1">
          <mxGeometry x="520" y="120" width="120" height="60" as="geometry" />
        </mxCell>
        <mxCell id="G4P-UI6NSGhW86nzO2lC-20" value="" style="edgeStyle=orthogonalEdgeStyle;rounded=0;orthogonalLoop=1;jettySize=auto;html=1;" edge="1" parent="1" source="G4P-UI6NSGhW86nzO2lC-16" target="G4P-UI6NSGhW86nzO2lC-19">
          <mxGeometry relative="1" as="geometry" />
        </mxCell>
        <mxCell id="G4P-UI6NSGhW86nzO2lC-16" value="arrivedPopInfo" style="whiteSpace=wrap;html=1;rounded=1;" vertex="1" parent="1">
          <mxGeometry x="460" y="230" width="120" height="60" as="geometry" />
        </mxCell>
        <mxCell id="G4P-UI6NSGhW86nzO2lC-22" value="" style="edgeStyle=orthogonalEdgeStyle;rounded=0;orthogonalLoop=1;jettySize=auto;html=1;" edge="1" parent="1" source="G4P-UI6NSGhW86nzO2lC-19" target="G4P-UI6NSGhW86nzO2lC-21">
          <mxGeometry relative="1" as="geometry" />
        </mxCell>
        <mxCell id="G4P-UI6NSGhW86nzO2lC-24" value="else" style="edgeStyle=orthogonalEdgeStyle;rounded=0;orthogonalLoop=1;jettySize=auto;html=1;" edge="1" parent="1" source="G4P-UI6NSGhW86nzO2lC-19" target="G4P-UI6NSGhW86nzO2lC-23">
          <mxGeometry relative="1" as="geometry" />
        </mxCell>
        <mxCell id="G4P-UI6NSGhW86nzO2lC-19" value="arrival pop type tourist" style="rhombus;whiteSpace=wrap;html=1;rounded=1;" vertex="1" parent="1">
          <mxGeometry x="480" y="310" width="80" height="80" as="geometry" />
        </mxCell>
        <mxCell id="G4P-UI6NSGhW86nzO2lC-30" value="" style="edgeStyle=orthogonalEdgeStyle;rounded=0;orthogonalLoop=1;jettySize=auto;html=1;" edge="1" parent="1" source="G4P-UI6NSGhW86nzO2lC-21" target="G4P-UI6NSGhW86nzO2lC-28">
          <mxGeometry relative="1" as="geometry" />
        </mxCell>
        <mxCell id="G4P-UI6NSGhW86nzO2lC-21" value="construct the pop data" style="whiteSpace=wrap;html=1;rounded=1;" vertex="1" parent="1">
          <mxGeometry x="460" y="410" width="120" height="60" as="geometry" />
        </mxCell>
        <mxCell id="G4P-UI6NSGhW86nzO2lC-23" value="construct the pop data" style="whiteSpace=wrap;html=1;rounded=1;" vertex="1" parent="1">
          <mxGeometry x="620" y="320" width="120" height="60" as="geometry" />
        </mxCell>
        <mxCell id="G4P-UI6NSGhW86nzO2lC-32" value="" style="edgeStyle=orthogonalEdgeStyle;rounded=0;orthogonalLoop=1;jettySize=auto;html=1;" edge="1" parent="1" source="G4P-UI6NSGhW86nzO2lC-28" target="G4P-UI6NSGhW86nzO2lC-31">
          <mxGeometry relative="1" as="geometry" />
        </mxCell>
        <mxCell id="G4P-UI6NSGhW86nzO2lC-28" value="pop data not undefined" style="rhombus;whiteSpace=wrap;html=1;rounded=1;" vertex="1" parent="1">
          <mxGeometry x="480" y="510" width="80" height="80" as="geometry" />
        </mxCell>
        <mxCell id="G4P-UI6NSGhW86nzO2lC-34" value="" style="edgeStyle=orthogonalEdgeStyle;rounded=0;orthogonalLoop=1;jettySize=auto;html=1;" edge="1" parent="1" source="G4P-UI6NSGhW86nzO2lC-31">
          <mxGeometry relative="1" as="geometry">
            <mxPoint x="320" y="550" as="targetPoint" />
          </mxGeometry>
        </mxCell>
        <mxCell id="G4P-UI6NSGhW86nzO2lC-31" value="call&amp;nbsp; agent creation" style="whiteSpace=wrap;html=1;rounded=1;" vertex="1" parent="1">
          <mxGeometry x="260" y="450" width="120" height="60" as="geometry" />
        </mxCell>
        <mxCell id="G4P-UI6NSGhW86nzO2lC-37" value="" style="edgeStyle=orthogonalEdgeStyle;rounded=0;orthogonalLoop=1;jettySize=auto;html=1;" edge="1" parent="1" source="G4P-UI6NSGhW86nzO2lC-35" target="G4P-UI6NSGhW86nzO2lC-36">
          <mxGeometry relative="1" as="geometry" />
        </mxCell>
        <mxCell id="G4P-UI6NSGhW86nzO2lC-35" value="FOR all created agent" style="rhombus;whiteSpace=wrap;html=1;rounded=1;" vertex="1" parent="1">
          <mxGeometry x="280" y="550" width="80" height="80" as="geometry" />
        </mxCell>
        <mxCell id="G4P-UI6NSGhW86nzO2lC-39" value="" style="edgeStyle=orthogonalEdgeStyle;rounded=0;orthogonalLoop=1;jettySize=auto;html=1;" edge="1" parent="1" source="G4P-UI6NSGhW86nzO2lC-36" target="G4P-UI6NSGhW86nzO2lC-38">
          <mxGeometry relative="1" as="geometry" />
        </mxCell>
        <mxCell id="G4P-UI6NSGhW86nzO2lC-36" value="add agent data into schema" style="whiteSpace=wrap;html=1;rounded=1;" vertex="1" parent="1">
          <mxGeometry x="260" y="670" width="120" height="60" as="geometry" />
        </mxCell>
        <mxCell id="G4P-UI6NSGhW86nzO2lC-38" value="end" style="ellipse;whiteSpace=wrap;html=1;rounded=1;" vertex="1" parent="1">
          <mxGeometry x="260" y="780" width="120" height="30" as="geometry" />
        </mxCell>
      </root>
    </mxGraphModel>
  </diagram>
</mxfile>
